<mxfile host="Electron" modified="2023-09-01T21:00:11.387Z" agent="Mozilla/5.0 (X11; Linux x86_64) AppleWebKit/537.36 (KHTML, like Gecko) draw.io/21.6.8 Chrome/114.0.5735.289 Electron/25.5.0 Safari/537.36" etag="vy4p6p6r0_WqGjtaNHWy" version="21.6.8" type="device">
  <diagram id="C5RBs43oDa-KdzZeNtuy" name="Page-1">
    <mxGraphModel dx="794" dy="453" grid="1" gridSize="10" guides="1" tooltips="1" connect="1" arrows="1" fold="1" page="1" pageScale="1" pageWidth="827" pageHeight="1169" math="0" shadow="0">
      <root>
        <mxCell id="WIyWlLk6GJQsqaUBKTNV-0" />
        <mxCell id="WIyWlLk6GJQsqaUBKTNV-1" parent="WIyWlLk6GJQsqaUBKTNV-0" />
        <mxCell id="WIyWlLk6GJQsqaUBKTNV-2" value="" style="rounded=0;html=1;jettySize=auto;orthogonalLoop=1;fontSize=11;endArrow=block;endFill=0;endSize=8;strokeWidth=1;shadow=0;labelBackgroundColor=none;edgeStyle=orthogonalEdgeStyle;" parent="WIyWlLk6GJQsqaUBKTNV-1" source="WIyWlLk6GJQsqaUBKTNV-3" target="Quc4kyo9P6n9TladqpNe-5" edge="1">
          <mxGeometry relative="1" as="geometry">
            <mxPoint x="220" y="100" as="targetPoint" />
          </mxGeometry>
        </mxCell>
        <mxCell id="WIyWlLk6GJQsqaUBKTNV-3" value="Loan Initiated" style="rounded=1;whiteSpace=wrap;html=1;fontSize=12;glass=0;strokeWidth=1;shadow=0;" parent="WIyWlLk6GJQsqaUBKTNV-1" vertex="1">
          <mxGeometry x="170" y="40" width="120" height="40" as="geometry" />
        </mxCell>
        <mxCell id="Quc4kyo9P6n9TladqpNe-11" value="" style="edgeStyle=orthogonalEdgeStyle;rounded=0;orthogonalLoop=1;jettySize=auto;html=1;" edge="1" parent="WIyWlLk6GJQsqaUBKTNV-1" source="Quc4kyo9P6n9TladqpNe-5" target="Quc4kyo9P6n9TladqpNe-10">
          <mxGeometry relative="1" as="geometry" />
        </mxCell>
        <mxCell id="Quc4kyo9P6n9TladqpNe-15" value="" style="edgeStyle=orthogonalEdgeStyle;rounded=0;orthogonalLoop=1;jettySize=auto;html=1;entryX=0;entryY=0.5;entryDx=0;entryDy=0;" edge="1" parent="WIyWlLk6GJQsqaUBKTNV-1" source="Quc4kyo9P6n9TladqpNe-5" target="Quc4kyo9P6n9TladqpNe-19">
          <mxGeometry relative="1" as="geometry">
            <mxPoint x="320" y="140" as="targetPoint" />
          </mxGeometry>
        </mxCell>
        <mxCell id="Quc4kyo9P6n9TladqpNe-5" value="Disclaimer: Accept?" style="rhombus;whiteSpace=wrap;html=1;" vertex="1" parent="WIyWlLk6GJQsqaUBKTNV-1">
          <mxGeometry x="190" y="100" width="80" height="80" as="geometry" />
        </mxCell>
        <mxCell id="Quc4kyo9P6n9TladqpNe-10" value="Cancelled" style="rounded=1;whiteSpace=wrap;html=1;" vertex="1" parent="WIyWlLk6GJQsqaUBKTNV-1">
          <mxGeometry x="40" y="110" width="120" height="60" as="geometry" />
        </mxCell>
        <mxCell id="Quc4kyo9P6n9TladqpNe-22" value="" style="edgeStyle=orthogonalEdgeStyle;rounded=0;orthogonalLoop=1;jettySize=auto;html=1;entryX=0;entryY=0.5;entryDx=0;entryDy=0;" edge="1" parent="WIyWlLk6GJQsqaUBKTNV-1" source="Quc4kyo9P6n9TladqpNe-19" target="Quc4kyo9P6n9TladqpNe-21">
          <mxGeometry relative="1" as="geometry" />
        </mxCell>
        <mxCell id="Quc4kyo9P6n9TladqpNe-19" value="Charge Daily Amount" style="whiteSpace=wrap;html=1;rounded=1;" vertex="1" parent="WIyWlLk6GJQsqaUBKTNV-1">
          <mxGeometry x="294" y="110" width="120" height="60" as="geometry" />
        </mxCell>
        <mxCell id="Quc4kyo9P6n9TladqpNe-29" style="edgeStyle=orthogonalEdgeStyle;rounded=0;orthogonalLoop=1;jettySize=auto;html=1;exitX=0.5;exitY=1;exitDx=0;exitDy=0;entryX=0.5;entryY=0;entryDx=0;entryDy=0;" edge="1" parent="WIyWlLk6GJQsqaUBKTNV-1" source="Quc4kyo9P6n9TladqpNe-21" target="Quc4kyo9P6n9TladqpNe-25">
          <mxGeometry relative="1" as="geometry" />
        </mxCell>
        <mxCell id="Quc4kyo9P6n9TladqpNe-30" value="Yes" style="edgeLabel;html=1;align=center;verticalAlign=middle;resizable=0;points=[];" vertex="1" connectable="0" parent="Quc4kyo9P6n9TladqpNe-29">
          <mxGeometry x="-0.15" relative="1" as="geometry">
            <mxPoint as="offset" />
          </mxGeometry>
        </mxCell>
        <mxCell id="Quc4kyo9P6n9TladqpNe-39" style="edgeStyle=orthogonalEdgeStyle;rounded=0;orthogonalLoop=1;jettySize=auto;html=1;exitX=1;exitY=0.5;exitDx=0;exitDy=0;entryX=0;entryY=0.5;entryDx=0;entryDy=0;" edge="1" parent="WIyWlLk6GJQsqaUBKTNV-1" source="Quc4kyo9P6n9TladqpNe-21" target="Quc4kyo9P6n9TladqpNe-35">
          <mxGeometry relative="1" as="geometry" />
        </mxCell>
        <mxCell id="Quc4kyo9P6n9TladqpNe-40" value="No" style="edgeLabel;html=1;align=center;verticalAlign=middle;resizable=0;points=[];" vertex="1" connectable="0" parent="Quc4kyo9P6n9TladqpNe-39">
          <mxGeometry x="-0.0833" y="-1" relative="1" as="geometry">
            <mxPoint as="offset" />
          </mxGeometry>
        </mxCell>
        <mxCell id="Quc4kyo9P6n9TladqpNe-21" value="Charge Success?" style="rhombus;whiteSpace=wrap;html=1;rounded=0;" vertex="1" parent="WIyWlLk6GJQsqaUBKTNV-1">
          <mxGeometry x="450" y="100" width="80" height="80" as="geometry" />
        </mxCell>
        <mxCell id="Quc4kyo9P6n9TladqpNe-28" style="edgeStyle=orthogonalEdgeStyle;rounded=0;orthogonalLoop=1;jettySize=auto;html=1;exitX=0;exitY=0.5;exitDx=0;exitDy=0;entryX=0.5;entryY=1;entryDx=0;entryDy=0;" edge="1" parent="WIyWlLk6GJQsqaUBKTNV-1" source="Quc4kyo9P6n9TladqpNe-25" target="Quc4kyo9P6n9TladqpNe-19">
          <mxGeometry relative="1" as="geometry" />
        </mxCell>
        <mxCell id="Quc4kyo9P6n9TladqpNe-31" value="No" style="edgeLabel;html=1;align=center;verticalAlign=middle;resizable=0;points=[];" vertex="1" connectable="0" parent="Quc4kyo9P6n9TladqpNe-28">
          <mxGeometry x="-0.4148" y="-3" relative="1" as="geometry">
            <mxPoint as="offset" />
          </mxGeometry>
        </mxCell>
        <mxCell id="Quc4kyo9P6n9TladqpNe-33" value="" style="edgeStyle=orthogonalEdgeStyle;rounded=0;orthogonalLoop=1;jettySize=auto;html=1;" edge="1" parent="WIyWlLk6GJQsqaUBKTNV-1" source="Quc4kyo9P6n9TladqpNe-25" target="Quc4kyo9P6n9TladqpNe-32">
          <mxGeometry relative="1" as="geometry" />
        </mxCell>
        <mxCell id="Quc4kyo9P6n9TladqpNe-34" value="Yes" style="edgeLabel;html=1;align=center;verticalAlign=middle;resizable=0;points=[];" vertex="1" connectable="0" parent="Quc4kyo9P6n9TladqpNe-33">
          <mxGeometry x="-0.05" y="3" relative="1" as="geometry">
            <mxPoint as="offset" />
          </mxGeometry>
        </mxCell>
        <mxCell id="Quc4kyo9P6n9TladqpNe-25" value="0 Balance" style="rhombus;whiteSpace=wrap;html=1;rounded=0;" vertex="1" parent="WIyWlLk6GJQsqaUBKTNV-1">
          <mxGeometry x="450" y="220" width="80" height="80" as="geometry" />
        </mxCell>
        <mxCell id="Quc4kyo9P6n9TladqpNe-32" value="Completed" style="rounded=1;whiteSpace=wrap;html=1;" vertex="1" parent="WIyWlLk6GJQsqaUBKTNV-1">
          <mxGeometry x="430" y="340" width="120" height="60" as="geometry" />
        </mxCell>
        <mxCell id="Quc4kyo9P6n9TladqpNe-42" value="" style="edgeStyle=orthogonalEdgeStyle;rounded=0;orthogonalLoop=1;jettySize=auto;html=1;" edge="1" parent="WIyWlLk6GJQsqaUBKTNV-1" source="Quc4kyo9P6n9TladqpNe-35" target="Quc4kyo9P6n9TladqpNe-41">
          <mxGeometry relative="1" as="geometry" />
        </mxCell>
        <mxCell id="Quc4kyo9P6n9TladqpNe-35" value="Add fee to loan proportional to amount paid" style="whiteSpace=wrap;html=1;rounded=1;" vertex="1" parent="WIyWlLk6GJQsqaUBKTNV-1">
          <mxGeometry x="567" y="110" width="120" height="60" as="geometry" />
        </mxCell>
        <mxCell id="Quc4kyo9P6n9TladqpNe-44" value="" style="edgeStyle=orthogonalEdgeStyle;rounded=0;orthogonalLoop=1;jettySize=auto;html=1;" edge="1" parent="WIyWlLk6GJQsqaUBKTNV-1" source="Quc4kyo9P6n9TladqpNe-41" target="Quc4kyo9P6n9TladqpNe-43">
          <mxGeometry relative="1" as="geometry" />
        </mxCell>
        <mxCell id="Quc4kyo9P6n9TladqpNe-45" value="Yes" style="edgeLabel;html=1;align=center;verticalAlign=middle;resizable=0;points=[];" vertex="1" connectable="0" parent="Quc4kyo9P6n9TladqpNe-44">
          <mxGeometry x="-0.3833" y="-5" relative="1" as="geometry">
            <mxPoint as="offset" />
          </mxGeometry>
        </mxCell>
        <mxCell id="Quc4kyo9P6n9TladqpNe-46" style="edgeStyle=orthogonalEdgeStyle;rounded=0;orthogonalLoop=1;jettySize=auto;html=1;exitX=0;exitY=0.5;exitDx=0;exitDy=0;" edge="1" parent="WIyWlLk6GJQsqaUBKTNV-1" source="Quc4kyo9P6n9TladqpNe-41" target="Quc4kyo9P6n9TladqpNe-19">
          <mxGeometry relative="1" as="geometry" />
        </mxCell>
        <mxCell id="Quc4kyo9P6n9TladqpNe-47" value="Always" style="edgeLabel;html=1;align=center;verticalAlign=middle;resizable=0;points=[];" vertex="1" connectable="0" parent="Quc4kyo9P6n9TladqpNe-46">
          <mxGeometry x="-0.2882" y="1" relative="1" as="geometry">
            <mxPoint x="1" as="offset" />
          </mxGeometry>
        </mxCell>
        <mxCell id="Quc4kyo9P6n9TladqpNe-41" value="Loan Overdue?" style="rhombus;whiteSpace=wrap;html=1;rounded=0;" vertex="1" parent="WIyWlLk6GJQsqaUBKTNV-1">
          <mxGeometry x="587" y="10" width="80" height="80" as="geometry" />
        </mxCell>
        <mxCell id="Quc4kyo9P6n9TladqpNe-43" value="Execute punishment command" style="whiteSpace=wrap;html=1;rounded=0;" vertex="1" parent="WIyWlLk6GJQsqaUBKTNV-1">
          <mxGeometry x="700" y="20" width="120" height="60" as="geometry" />
        </mxCell>
      </root>
    </mxGraphModel>
  </diagram>
</mxfile>
